<svg version="1.1" viewBox="0.0 0.0 890.0 890.0" fill="none" stroke="none" stroke-linecap="square" stroke-miterlimit="10" xmlns:xlink="http://www.w3.org/1999/xlink" xmlns="http://www.w3.org/2000/svg"><clipPath id="p.0"><path d="m0 0l890.0 0l0 890.0l-890.0 0l0 -890.0z" clip-rule="nonzero"/></clipPath><g clip-path="url(#p.0)"><path fill="#000000" fill-opacity="0.0" d="m0 0l890.0 0l0 890.0l-890.0 0z" fill-rule="evenodd"/><path shape-rendering="crispEdges" fill="#ffffff" fill-opacity="0.0823" d="m0 0l111.249344 0l0 111.249344l-111.249344 0l0 -111.249344z" fill-rule="nonzero"/><path shape-rendering="crispEdges" fill="#ffffff" fill-opacity="0.0823" d="m222.49869 0l111.24933 0l0 111.249344l-111.24933 0l0 -111.249344z" fill-rule="nonzero"/><path shape-rendering="crispEdges" fill="#ffffff" fill-opacity="0.0823" d="m444.99738 0l111.24933 0l0 111.249344l-111.24933 0l0 -111.249344z" fill-rule="nonzero"/><path shape-rendering="crispEdges" fill="#ffffff" fill-opacity="0.0823" d="m667.49603 0l111.24939 0l0 111.249344l-111.24939 0l0 -111.249344z" fill-rule="nonzero"/><path shape-rendering="crispEdges" fill="#ffffff" fill-opacity="0.0823" d="m111.249344 111.249344l111.249344 0l0 111.249344l-111.249344 0l0 -111.249344z" fill-rule="nonzero"/><path shape-rendering="crispEdges" fill="#ffffff" fill-opacity="0.0823" d="m333.74802 111.249344l111.24936 0l0 111.249344l-111.24936 0l0 -111.249344z" fill-rule="nonzero"/><path shape-rendering="crispEdges" fill="#ffffff" fill-opacity="0.0823" d="m556.2467 111.249344l111.24933 0l0 111.249344l-111.24933 0l0 -111.249344z" fill-rule="nonzero"/><path shape-rendering="crispEdges" fill="#ffffff" fill-opacity="0.0823" d="m778.7454 111.249344l111.24933 0l0 111.249344l-111.24933 0l0 -111.249344z" fill-rule="nonzero"/><path shape-rendering="crispEdges" fill="#ffffff" fill-opacity="0.0823" d="m0 222.49869l111.249344 0l0 111.24933l-111.249344 0l0 -111.24933z" fill-rule="nonzero"/><path shape-rendering="crispEdges" fill="#ffffff" fill-opacity="0.0823" d="m222.49869 222.49869l111.24933 0l0 111.24933l-111.24933 0l0 -111.24933z" fill-rule="nonzero"/><path shape-rendering="crispEdges" fill="#ffffff" fill-opacity="0.0823" d="m444.99738 222.49869l111.24933 0l0 111.24933l-111.24933 0l0 -111.24933z" fill-rule="nonzero"/><path shape-rendering="crispEdges" fill="#ffffff" fill-opacity="0.0823" d="m667.49603 222.49869l111.24939 0l0 111.24933l-111.24939 0l0 -111.24933z" fill-rule="nonzero"/><path shape-rendering="crispEdges" fill="#ffffff" fill-opacity="0.0823" d="m111.249344 333.74802l111.249344 0l0 111.24936l-111.249344 0l0 -111.24936z" fill-rule="nonzero"/><path shape-rendering="crispEdges" fill="#ffffff" fill-opacity="0.0823" d="m333.74802 333.74802l111.24936 0l0 111.24936l-111.24936 0l0 -111.24936z" fill-rule="nonzero"/><path shape-rendering="crispEdges" fill="#ffffff" fill-opacity="0.0823" d="m556.2467 333.74802l111.24933 0l0 111.24936l-111.24933 0l0 -111.24936z" fill-rule="nonzero"/><path shape-rendering="crispEdges" fill="#ffffff" fill-opacity="0.0823" d="m778.7454 333.74802l111.24933 0l0 111.24936l-111.24933 0l0 -111.24936z" fill-rule="nonzero"/><path shape-rendering="crispEdges" fill="#ffffff" fill-opacity="0.0823" d="m0 444.99738l111.249344 0l0 111.24933l-111.249344 0l0 -111.24933z" fill-rule="nonzero"/><path shape-rendering="crispEdges" fill="#ffffff" fill-opacity="0.0823" d="m222.49869 444.99738l111.24933 0l0 111.24933l-111.24933 0l0 -111.24933z" fill-rule="nonzero"/><path shape-rendering="crispEdges" fill="#ffffff" fill-opacity="0.0823" d="m444.99738 444.99738l111.24933 0l0 111.24933l-111.24933 0l0 -111.24933z" fill-rule="nonzero"/><path shape-rendering="crispEdges" fill="#ffffff" fill-opacity="0.0823" d="m667.49603 444.99738l111.24939 0l0 111.24933l-111.24939 0l0 -111.24933z" fill-rule="nonzero"/><path shape-rendering="crispEdges" fill="#ffffff" fill-opacity="0.0823" d="m111.249344 556.2467l111.249344 0l0 111.24933l-111.249344 0l0 -111.24933z" fill-rule="nonzero"/><path shape-rendering="crispEdges" fill="#ffffff" fill-opacity="0.0823" d="m333.74802 556.2467l111.24936 0l0 111.24933l-111.24936 0l0 -111.24933z" fill-rule="nonzero"/><path shape-rendering="crispEdges" fill="#ffffff" fill-opacity="0.0823" d="m556.2467 556.2467l111.24933 0l0 111.24933l-111.24933 0l0 -111.24933z" fill-rule="nonzero"/><path shape-rendering="crispEdges" fill="#ffffff" fill-opacity="0.0823" d="m778.7454 556.2467l111.24933 0l0 111.24933l-111.24933 0l0 -111.24933z" fill-rule="nonzero"/><path shape-rendering="crispEdges" fill="#ffffff" fill-opacity="0.0823" d="m0 667.49603l111.249344 0l0 111.24939l-111.249344 0l0 -111.24939z" fill-rule="nonzero"/><path shape-rendering="crispEdges" fill="#ffffff" fill-opacity="0.0823" d="m222.49869 667.49603l111.24933 0l0 111.24939l-111.24933 0l0 -111.24939z" fill-rule="nonzero"/><path shape-rendering="crispEdges" fill="#ffffff" fill-opacity="0.0823" d="m444.99738 667.49603l111.24933 0l0 111.24939l-111.24933 0l0 -111.24939z" fill-rule="nonzero"/><path shape-rendering="crispEdges" fill="#ffffff" fill-opacity="0.0823" d="m667.49603 667.49603l111.24939 0l0 111.24939l-111.24939 0l0 -111.24939z" fill-rule="nonzero"/><path shape-rendering="crispEdges" fill="#ffffff" fill-opacity="0.0823" d="m111.249344 778.7454l111.249344 0l0 111.24933l-111.249344 0l0 -111.24933z" fill-rule="nonzero"/><path shape-rendering="crispEdges" fill="#ffffff" fill-opacity="0.0823" d="m333.74802 778.7454l111.24936 0l0 111.24933l-111.24936 0l0 -111.24933z" fill-rule="nonzero"/><path shape-rendering="crispEdges" fill="#ffffff" fill-opacity="0.0823" d="m556.2467 778.7454l111.24933 0l0 111.24933l-111.24933 0l0 -111.24933z" fill-rule="nonzero"/><path shape-rendering="crispEdges" fill="#ffffff" fill-opacity="0.0823" d="m778.7454 778.7454l111.24933 0l0 111.24933l-111.24933 0l0 -111.24933z" fill-rule="nonzero"/></g></svg>